<svg width="40" height="40" viewBox="0 0 40 40" fill="none" xmlns="http://www.w3.org/2000/svg">
    <path d="M36.6225 37.3675C37.0542 38.6626 36.0903 40 34.7251 40H2.77485C1.40974 40 0.445798 38.6626 0.877485 37.3675L7.04415 18.8675C7.31638 18.0509 8.08066 17.5 8.94152 17.5H17.5V12.3828C16.7708 12.2266 16.1003 11.9596 15.4883 11.582C14.8763 11.2044 14.349 10.7487 13.9063 10.2148C13.4635 9.68099 13.1185 9.06901 12.8711 8.37891C12.6237 7.6888 12.5 6.97917 12.5 6.25C12.5 5.39063 12.6628 4.58333 12.9883 3.82813C13.3138 3.07292 13.7565 2.41536 14.3164 1.85547C14.8763 1.29557 15.5404 0.846354 16.3086 0.507813C17.0768 0.169271 17.8906 0 18.75 0C19.6094 0 20.4167 0.16276 21.1719 0.488281C21.9271 0.813802 22.5846 1.26302 23.1445 1.83594C23.7044 2.40885 24.1536 3.07292 24.4922 3.82813C24.8307 4.58333 25 5.39063 25 6.25C25 6.99219 24.8763 7.70182 24.6289 8.37891C24.3815 9.05599 24.0365 9.66146 23.5938 10.1953C23.151 10.7292 22.6237 11.1914 22.0117 11.582C21.3997 11.9727 20.7292 12.2396 20 12.3828V17.5H28.5585C29.4193 17.5 30.1836 18.0509 30.4558 18.8675L36.6225 37.3675ZM15 6.25C15 6.77083 15.0977 7.25911 15.293 7.71484C15.4883 8.17057 15.7552 8.56771 16.0938 8.90625C16.4323 9.24479 16.8294 9.51172 17.2852 9.70703C17.7409 9.90234 18.2292 10 18.75 10C19.2708 10 19.7591 9.90234 20.2148 9.70703C20.6706 9.51172 21.0677 9.24479 21.4063 8.90625C21.7448 8.56771 22.0117 8.17057 22.207 7.71484C22.4023 7.25911 22.5 6.77083 22.5 6.25C22.5 5.72917 22.4023 5.24089 22.207 4.78516C22.0117 4.32943 21.7448 3.93229 21.4063 3.59375C21.0677 3.25521 20.6706 2.98828 20.2148 2.79297C19.7591 2.59766 19.2708 2.5 18.75 2.5C18.2292 2.5 17.7409 2.59766 17.2852 2.79297C16.8294 2.98828 16.4323 3.25521 16.0938 3.59375C15.7552 3.93229 15.4883 4.32943 15.293 4.78516C15.0977 5.24089 15 5.72917 15 6.25ZM3.47656 37.5H34.0234L28.2031 20H20V29.375C20 29.4922 19.9544 29.5898 19.8633 29.668C19.7721 29.7461 19.6549 29.8112 19.5117 29.8633C19.3685 29.9154 19.2318 29.9479 19.1016 29.9609C18.9714 29.974 18.8542 29.987 18.75 30C18.6589 30 18.5482 29.9935 18.418 29.9805C18.2878 29.9674 18.151 29.9349 18.0078 29.8828C17.8646 29.8307 17.7474 29.7656 17.6563 29.6875C17.5651 29.6094 17.513 29.5052 17.5 29.375V20H9.29688L3.47656 37.5Z" fill="white"/>
</svg>
