<svg width="42" height="42" viewBox="0 0 42 42" fill="none" xmlns="http://www.w3.org/2000/svg">
    <path d="M15.162 27.5362C15.5908 27.839 16.1018 28 16.625 27.9982V27.9912C17.119 27.9921 17.6023 27.8479 18.0151 27.5767C18.4279 27.3054 18.752 26.919 18.9473 26.4652L20.02 23.2032C20.2679 22.4643 20.6842 21.7932 21.236 21.2429C21.7879 20.6925 22.4602 20.2781 23.1998 20.0322L26.3113 19.0207C26.8133 18.8455 27.2472 18.5162 27.551 18.0797C27.8548 17.6432 28.0129 17.122 28.0028 16.5903C27.9927 16.0586 27.8149 15.5437 27.4948 15.1191C27.1747 14.6944 26.7286 14.3818 26.2203 14.2257L23.149 13.2282C22.406 12.9812 21.7309 12.5641 21.1774 12.0103C20.6239 11.4565 20.2072 10.7811 19.9605 10.038L18.949 6.92824C18.7726 6.43295 18.4463 6.0049 18.0154 5.70357C17.5846 5.40225 17.0706 5.24261 16.5448 5.24685C16.0191 5.25108 15.5077 5.41897 15.0817 5.7272C14.6558 6.03542 14.3364 6.46867 14.168 6.96674L13.1478 10.1027C12.9017 10.8242 12.4951 11.4804 11.9585 12.0218C11.422 12.5632 10.7695 12.9757 10.0503 13.2282L6.94051 14.2257C6.44139 14.3984 6.00893 14.7232 5.7039 15.1543C5.39887 15.5855 5.23659 16.1014 5.23987 16.6295C5.24315 17.1577 5.41183 17.6715 5.7222 18.0988C6.03257 18.5262 6.46904 18.8455 6.97026 19.012L10.0398 20.0077C10.7826 20.2567 11.4574 20.675 12.0107 21.2296C12.5641 21.7842 12.9809 22.4599 13.2283 23.2032L14.2398 26.3095C14.413 26.8047 14.735 27.2335 15.162 27.5362ZM14.5075 20.0987C14.3124 19.8437 14.1001 19.6023 13.8723 19.376H13.8775C13.0325 18.5303 12.0018 17.8933 10.8675 17.5157L8.06751 16.625L10.8868 15.708C12.0024 15.3217 13.0143 14.684 13.8443 13.8442C14.6706 12.9991 15.2936 11.977 15.666 10.8552L16.5673 8.08674L17.4703 10.864C17.8471 11.9962 18.4834 13.0247 19.3284 13.8673C20.1734 14.7099 21.2037 15.3432 22.337 15.7167L25.172 16.6302L22.3895 17.5315C21.2584 17.9076 20.2306 18.5424 19.3879 19.3855C18.5452 20.2285 17.9107 21.2565 17.535 22.3877L16.6338 25.1562L15.7325 22.3825C15.4573 21.5565 15.043 20.7852 14.5075 20.0987ZM28.5793 36.3685C28.2456 36.1303 27.9947 35.7938 27.8618 35.406L27.2878 33.6455C27.1774 33.3099 26.99 33.0048 26.7405 32.7547C26.491 32.5045 26.1864 32.3164 25.851 32.2052L24.1168 31.64C23.7198 31.5061 23.3746 31.2513 23.1295 30.9115C22.8844 30.5717 22.7517 30.1637 22.75 29.7447C22.7503 29.3285 22.8804 28.9227 23.1223 28.5839C23.3641 28.2451 23.7057 27.9902 24.0993 27.8547L25.8598 27.2842C26.1872 27.1679 26.4837 26.978 26.7264 26.7293C26.969 26.4805 27.1515 26.1795 27.2598 25.8492L27.8268 24.115C27.9602 23.7226 28.2122 23.3813 28.5479 23.1383C28.8837 22.8953 29.2867 22.7626 29.7011 22.7586C30.1156 22.7546 30.521 22.8794 30.8615 23.1158C31.2019 23.3522 31.4605 23.6885 31.6015 24.0782L32.1773 25.8527C32.29 26.1854 32.4782 26.4874 32.7272 26.7352C32.9761 26.9829 33.2791 27.1696 33.6123 27.2807L35.3483 27.846C35.7484 27.9711 36.0991 28.2191 36.3504 28.5547C36.6018 28.8903 36.7411 29.2965 36.7487 29.7158C36.7562 30.135 36.6316 30.546 36.3925 30.8904C36.1534 31.2348 35.8119 31.4953 35.4165 31.6347L33.642 32.2105C33.3083 32.3231 33.0054 32.5117 32.757 32.7613C32.5086 33.0109 32.3215 33.3148 32.2105 33.649L31.647 35.3797C31.5105 35.7822 31.2515 36.1322 30.9033 36.3772C30.5635 36.6188 30.1567 36.7478 29.7399 36.7462C29.323 36.7446 28.9172 36.6126 28.5793 36.3685ZM26.7768 29.7482C27.4644 29.9928 28.0884 30.3885 28.6029 30.9061C29.1175 31.4236 29.5094 32.05 29.75 32.739C29.9931 32.0529 30.3863 31.4297 30.901 30.915C31.4157 30.4003 32.0389 30.0071 32.725 29.764C32.0328 29.5212 31.4037 29.1269 30.8835 28.6097C30.3633 28.0926 29.9653 27.4657 29.7185 26.775C29.4769 27.4567 29.0878 28.0766 28.579 28.5905C28.0702 29.1045 27.456 29.4998 26.7768 29.7482Z" fill="white"/>
</svg>